<?xml version="1.0" encoding="utf-8"?>
<!-- Generator: Adobe Illustrator 21.0.0, SVG Export Plug-In . SVG Version: 6.00 Build 0)  -->
<svg version="1.0" id="Layer_1" xmlns="http://www.w3.org/2000/svg" xmlns:xlink="http://www.w3.org/1999/xlink" x="0px" y="0px"
	 viewBox="0 0 1280 800" enable-background="new 0 0 1280 800" xml:space="preserve">
<path display="none" fill="none" stroke="#707070" stroke-width="12.338" stroke-miterlimit="10" d="M683.3,463v-23.6
	c0-27.3-22.1-49.4-49.4-49.4c-27.3,0-49.4,22.1-49.4,49.4V463"/>
<polygon display="none" fill="#999999" points="756,624 497,624 527,441 726,441 "/>
<polygon display="none" fill="#969696" points="710,455 511,455 527,441 726,441 "/>
<polygon display="none" fill="#D3D3D3" points="756,624 740,638 710,455 726,441 "/>
<polygon fill="#B3B3B3" points="740,638 481,638 511,455 710,455 "/>
<path fill="none" stroke="#FFFFFF" stroke-width="12.6223" stroke-miterlimit="10" d="M640.4,504.5c-12.3,0-23.3,5.9-30.3,15
	c-7-9.1-17.9-15-30.3-15c-21,0-38.1,17.1-38.1,38.1c0,21,17.1,38.1,38.1,38.1c12.3,0,23.3-5.9,30.3-15c7,9.1,17.9,15,30.3,15
	c21,0,38.1-17.1,38.1-38.1C678.5,521.5,661.5,504.5,640.4,504.5z"/>
<path fill="none" stroke="#B3B3B3" stroke-width="12" stroke-miterlimit="10" d="M658.3,463v-22.9c0-26.6-21.5-48.1-48.1-48.1
	c-26.6,0-48.1,21.5-48.1,48.1V463"/>
</svg>
